<?xml version="1.0" standalone="no"?><svg xmlns="http://www.w3.org/2000/svg" viewBox="0 0 1440 320"><path fill="#0099ff" fill-opacity="1" d="M0,64L40,96C80,128,160,192,240,197.3C320,203,400,149,480,128C560,107,640,117,720,149.3C800,181,880,235,960,218.7C1040,203,1120,117,1200,80C1280,43,1360,53,1400,58.7L1440,64L1440,320L1400,320C1360,320,1280,320,1200,320C1120,320,1040,320,960,320C880,320,800,320,720,320C640,320,560,320,480,320C400,320,320,320,240,320C160,320,80,320,40,320L0,320Z"></path></svg>